<svg width="40" height="40" viewBox="0 0 40 40" fill="none" xmlns="http://www.w3.org/2000/svg">
<g clip-path="url(#clip0_1_8)">
<path d="M28.9409 33.89C28.7832 33.8281 28.6122 33.7923 28.431 33.7923C28.2499 33.7923 28.0788 33.8281 27.9212 33.89C27.7635 33.9551 27.6193 34.0462 27.5019 34.1634L27.4918 34.1699C27.4247 34.235 27.361 34.3099 27.3107 34.3913C27.2839 34.4336 27.257 34.4792 27.2335 34.528H25.117V32.7441C24.7916 32.8906 24.4528 33.0013 24.1073 33.0697C24.047 33.0827 23.9899 33.0924 23.9296 33.1022V35.1009C23.9296 35.2604 23.9966 35.4036 24.104 35.5078C24.2113 35.612 24.3589 35.6771 24.5233 35.6771H27.2537C27.2738 35.7161 27.2973 35.7552 27.3241 35.7943C27.3711 35.8626 27.4247 35.9277 27.4851 35.9863L27.4952 35.9961C27.6159 36.1133 27.7635 36.2109 27.9279 36.276C28.0855 36.3379 28.2566 36.3737 28.4377 36.3737C28.6122 36.3737 28.7832 36.3411 28.9375 36.2793L28.9476 36.276C29.1119 36.2109 29.2562 36.1133 29.3803 35.9961C29.501 35.8789 29.6017 35.7357 29.6688 35.5762C29.7325 35.4232 29.7694 35.2572 29.7694 35.0814C29.7694 34.9089 29.7325 34.7428 29.6688 34.5866C29.6017 34.4271 29.501 34.2839 29.3803 34.1667C29.2528 34.0527 29.1052 33.9551 28.9409 33.89ZM19.2637 21.6829H16.7816L16.426 22.8158H14.192L16.8587 15.9408H19.2537L21.9103 22.8158H19.6193L19.2637 21.6829ZM18.8008 20.1921L18.026 17.7214L17.2478 20.1921H18.8008ZM22.5275 15.9375H24.7245V22.8125H22.5275V15.9375ZM20.8537 8.88997C20.4914 9.14388 20.156 9.48568 19.8642 9.92839C19.8507 9.95117 19.8306 9.9707 19.8071 9.98372C19.7166 10.0391 19.5958 10.013 19.5388 9.92839C19.247 9.48568 18.9115 9.14388 18.5493 8.88997C18.1602 8.61654 17.7409 8.44401 17.3082 8.35938H17.3015C16.8788 8.27474 16.4461 8.27474 16.0302 8.34635C15.5908 8.42122 15.1648 8.57747 14.7824 8.79232C14.4034 9.00716 14.0612 9.28385 13.7761 9.60286C13.501 9.91211 13.2797 10.2669 13.1354 10.6478C13.1119 10.7064 13.0918 10.7682 13.0717 10.8333C13.0549 10.8919 13.0348 10.957 13.0214 11.0221C13.0046 11.1068 12.9308 11.1686 12.8369 11.1719C12.3874 11.237 11.9413 11.3965 11.5254 11.6341C11.1027 11.8783 10.7103 12.2103 10.3715 12.6074C10.0361 13.0046 9.7543 13.4733 9.55304 13.9941C9.3652 14.4824 9.25115 15.0195 9.22767 15.5892C9.22432 15.6641 9.22432 15.7357 9.22432 15.8105C9.22432 15.8789 9.22767 15.9505 9.22767 16.0254C9.23103 16.0872 9.20419 16.1523 9.14717 16.1914C8.87212 16.3835 8.6239 16.582 8.40252 16.7871C8.17778 16.9987 7.97987 17.2168 7.8088 17.4414C7.5304 17.8092 7.32579 18.1934 7.18826 18.5807C7.04403 18.9844 6.97358 19.3978 6.96688 19.8047C6.96352 20.1953 7.01719 20.5827 7.13124 20.957C7.24528 21.3379 7.41971 21.709 7.64444 22.054C7.77191 22.2526 7.91614 22.4479 8.07379 22.6302C8.2348 22.8158 8.40922 22.9915 8.59706 23.1576C8.64402 23.1999 8.67086 23.2682 8.65744 23.3333C8.60377 23.5807 8.57694 23.8249 8.56688 24.0658C8.56017 24.3132 8.57358 24.5573 8.60713 24.7949C8.67086 25.2311 8.80168 25.6478 8.98616 26.0319C9.18071 26.4421 9.43564 26.8164 9.73082 27.1452C10.0159 27.4674 10.3413 27.7474 10.6901 27.9785C11.0423 28.2129 11.4147 28.3952 11.7971 28.5221C11.9681 28.5775 12.1426 28.623 12.3203 28.6556C12.488 28.6882 12.6558 28.7077 12.8201 28.7142C12.9107 28.7109 12.9945 28.7728 13.0147 28.8639C13.1019 29.2513 13.2629 29.6159 13.4843 29.9447C13.7157 30.2897 14.0075 30.5957 14.343 30.8496C14.7656 31.1686 15.2621 31.4095 15.7853 31.5365C16.2784 31.6569 16.7983 31.6797 17.3082 31.5755C17.7644 31.4844 18.2071 31.2956 18.6164 30.9961C18.992 30.7194 19.3409 30.3483 19.6327 29.8665C19.6495 29.8372 19.6763 29.8145 19.7099 29.7982C19.8038 29.7494 19.9212 29.7852 19.9715 29.8763C20.213 30.3125 20.5082 30.6608 20.8369 30.9245C21.1925 31.2077 21.5849 31.3997 21.9975 31.5104C22.5241 31.6504 23.0742 31.6504 23.6075 31.543C24.1778 31.429 24.7279 31.1882 25.2008 30.8561C25.5732 30.599 25.9019 30.2832 26.1635 29.9251C26.4117 29.5898 26.5962 29.2155 26.7036 28.8216C26.717 28.7467 26.7774 28.6816 26.8612 28.6686C27.3543 28.584 27.8407 28.3854 28.2868 28.0892C28.7329 27.793 29.1388 27.4023 29.4709 26.9368C29.7761 26.5072 30.021 26.0124 30.1786 25.472C30.3262 24.9674 30.3966 24.4206 30.3732 23.8444C30.3665 23.7793 30.3966 23.7142 30.457 23.6751C30.7455 23.4831 31.0004 23.2813 31.2285 23.0762C31.46 22.8613 31.6646 22.64 31.839 22.4089C32.1073 22.0573 32.3052 21.6927 32.4428 21.3184C32.5836 20.931 32.6574 20.5371 32.6709 20.1432C32.6809 19.7624 32.634 19.3848 32.5333 19.0137C32.4327 18.6393 32.2751 18.278 32.0704 17.9362L32.0637 17.9297C31.9296 17.7051 31.7719 17.4902 31.5975 17.2819C31.4231 17.0736 31.2252 16.8783 31.0138 16.6927C30.9635 16.6504 30.9367 16.582 30.9501 16.5137C30.9971 16.2891 31.0273 16.0645 31.0373 15.8431C31.0474 15.6185 31.0407 15.3971 31.0172 15.179C30.9669 14.7266 30.8428 14.2969 30.6616 13.8965C30.4704 13.4733 30.2155 13.0827 29.917 12.7409C29.6285 12.4089 29.2964 12.1191 28.9409 11.8783C28.5853 11.6374 28.2063 11.4486 27.8205 11.3216L27.8105 11.3184C27.6059 11.25 27.3979 11.2012 27.1933 11.1686H27.1866C26.9853 11.1361 26.7841 11.123 26.5862 11.1263C26.4956 11.1328 26.4084 11.0742 26.3849 10.9831C26.3514 10.8496 26.3078 10.7194 26.2574 10.5924C26.2038 10.4622 26.1434 10.3353 26.073 10.2083C25.8918 9.88281 25.6537 9.58333 25.3753 9.32617C25.0901 9.0625 24.7648 8.83789 24.4159 8.66537C24.057 8.48958 23.6646 8.36589 23.2621 8.31055C22.8797 8.25846 22.4872 8.26497 22.1015 8.3431C21.6688 8.44401 21.2428 8.61654 20.8537 8.88997ZM26.3379 12.5553C26.3614 12.4837 26.4285 12.4284 26.5124 12.4219C26.6532 12.4121 26.7975 12.4186 26.9417 12.4414C27.0893 12.4642 27.2369 12.5 27.3845 12.5488C27.6629 12.64 27.9413 12.7799 28.1996 12.9557C28.4545 13.1283 28.696 13.3398 28.904 13.5807L28.9073 13.5872C29.1254 13.8379 29.3099 14.1178 29.4474 14.4238C29.5782 14.7103 29.6654 15.0163 29.7023 15.3385C29.7258 15.5534 29.7258 15.778 29.699 16.0059C29.6755 16.2174 29.6252 16.4355 29.548 16.6536L29.5447 16.6667C29.4977 16.8034 29.501 16.9466 29.5447 17.0736C29.5916 17.2038 29.6788 17.321 29.8029 17.3991L29.813 17.4056C30.0478 17.5749 30.2558 17.7604 30.4369 17.9557C30.6247 18.1543 30.7857 18.3691 30.9199 18.5905C31.0675 18.8346 31.1815 19.0885 31.252 19.349C31.3258 19.6061 31.3593 19.8665 31.3493 20.1237C31.3426 20.3906 31.2889 20.6576 31.1916 20.9212C31.0977 21.1719 30.9602 21.4193 30.779 21.6602L30.7757 21.6634C30.6113 21.8815 30.4034 22.0964 30.1585 22.3014C29.9237 22.4967 29.652 22.6823 29.34 22.8613L29.33 22.8678C29.2059 22.9362 29.1153 23.0404 29.0616 23.1608C29.008 23.2813 28.9912 23.4147 29.018 23.5449L29.0214 23.571C29.0851 24.069 29.0549 24.5443 28.9509 24.9772C28.8369 25.4492 28.639 25.8724 28.3807 26.2337C28.1828 26.5104 27.9547 26.748 27.7099 26.9368C27.4583 27.1322 27.1866 27.2754 26.9082 27.3633H26.9048C26.8042 27.3926 26.6935 27.3372 26.6633 27.2396C26.2843 26.0384 25.6302 25.651 24.5233 25.0977L24.4998 25.0846C24.3455 25.013 24.1778 25.0065 24.0268 25.0521C23.8759 25.0977 23.7451 25.1986 23.6679 25.3451L23.6579 25.3646C23.5841 25.5143 23.5774 25.6771 23.6243 25.8236C23.6746 25.9701 23.782 26.1003 23.9363 26.1784C24.8621 26.6374 25.5463 26.9857 25.5363 28.112C25.5329 28.4473 25.4256 28.7728 25.2444 29.0658C25.0532 29.375 24.7782 29.6517 24.4595 29.8763C24.1342 30.1042 23.7686 30.2702 23.3929 30.3516C23.034 30.4329 22.665 30.4362 22.3195 30.3451C21.7358 30.1888 21.3568 29.8112 21.1019 29.3522C20.8604 28.916 20.7262 28.4082 20.6289 27.946C20.6222 27.9297 20.6222 27.9102 20.6222 27.8939C20.6222 27.6595 20.4344 27.5065 20.1895 27.4382C20.0822 27.4056 19.9648 27.3926 19.8507 27.3926C19.7333 27.3926 19.6193 27.4089 19.5119 27.4382C19.2704 27.5098 19.0826 27.6628 19.0826 27.8939C19.0826 27.9102 19.0792 27.9232 19.0759 27.9395C18.888 28.6621 18.6164 29.2057 18.2977 29.5964C17.9254 30.0553 17.4893 30.306 17.0398 30.3971C16.7111 30.4622 16.3723 30.446 16.0503 30.3646C15.7115 30.2767 15.3895 30.1172 15.1078 29.9089C14.8293 29.6973 14.5979 29.4401 14.4369 29.1504C14.2826 28.8737 14.192 28.5677 14.192 28.2552C14.192 27.0703 14.93 26.6732 15.9061 26.1882C16.0604 26.11 16.1677 25.9798 16.218 25.8333C16.2683 25.6836 16.2583 25.5176 16.1811 25.3646C16.1006 25.2148 15.9665 25.1107 15.8155 25.0618C15.6646 25.0163 15.4969 25.0228 15.3426 25.0944L15.3325 25.0977C14.182 25.6673 13.4943 26.084 13.0818 27.3242C13.0583 27.4056 12.9778 27.4674 12.8872 27.4642C12.7732 27.4609 12.6591 27.4479 12.5417 27.4251C12.4277 27.4023 12.3136 27.373 12.2063 27.334C11.9346 27.2428 11.6629 27.1094 11.408 26.9401C11.1564 26.7708 10.9216 26.569 10.7136 26.3346C10.499 26.0938 10.3145 25.8236 10.1736 25.5273C10.0394 25.2507 9.94549 24.9544 9.89853 24.6452V24.6387C9.86499 24.4108 9.85828 24.1732 9.88511 23.929C9.90859 23.7012 9.95891 23.4635 10.0428 23.2292L10.0461 23.2194C10.0931 23.0859 10.0897 22.946 10.0495 22.8223L10.0461 22.8158C10.0025 22.6855 9.9153 22.5716 9.79455 22.4902L9.78784 22.4837C9.57317 22.3275 9.37862 22.1615 9.20755 21.9792C9.03312 21.7969 8.87883 21.6016 8.75136 21.3997C8.59706 21.1556 8.47631 20.8952 8.39581 20.6283C8.31866 20.3678 8.27841 20.1009 8.28176 19.8275C8.28512 19.5508 8.33543 19.2676 8.43606 18.9909C8.53333 18.7272 8.67421 18.4635 8.86876 18.2064C9.03312 17.9883 9.23438 17.7734 9.47589 17.5684C9.70734 17.3698 9.96897 17.181 10.2709 17.002C10.3816 16.9368 10.4621 16.8457 10.5157 16.7415L10.5191 16.7318C10.5727 16.6243 10.5929 16.5039 10.5761 16.3835C10.5727 16.3704 10.5727 16.3574 10.5727 16.3444V16.3379C10.556 16.224 10.5459 16.11 10.5392 15.9993C10.5325 15.8789 10.5325 15.7585 10.5358 15.6413C10.5526 15.2148 10.6365 14.8145 10.774 14.4531C10.9216 14.0658 11.1296 13.7174 11.3778 13.4212C11.5824 13.1771 11.8172 12.972 12.0621 12.8125C12.3069 12.653 12.5652 12.5391 12.8302 12.474C12.9308 12.4447 13.0415 12.5 13.0717 12.5977C13.2797 13.2357 13.5413 13.6361 14.0411 14.0885L14.0612 14.1048C14.1853 14.2155 14.3463 14.2676 14.504 14.2611C14.6616 14.2546 14.8159 14.1927 14.93 14.0723L14.94 14.0592C15.0541 13.9388 15.1078 13.7826 15.101 13.6296C15.0943 13.4766 15.0273 13.3236 14.8998 13.2064C14.4973 12.8451 14.4067 12.6204 14.286 12.2559C14.1451 11.8359 14.1686 11.4258 14.3061 11.0612C14.4 10.8105 14.5476 10.5762 14.7354 10.3711C14.9199 10.166 15.1447 9.98372 15.3929 9.84375L15.4029 9.83724C15.6579 9.69401 15.9329 9.58984 16.218 9.53776C16.4897 9.48893 16.7681 9.48568 17.0398 9.54102C17.4222 9.61914 17.7979 9.81445 18.13 10.153C18.4218 10.4492 18.6801 10.8594 18.8847 11.3997L18.8881 11.4063C18.9585 11.6178 19.1866 11.7415 19.4549 11.7904C19.5757 11.8132 19.7031 11.8197 19.8273 11.8132H19.8306C19.9581 11.8066 20.0788 11.7839 20.1929 11.748C20.3941 11.6829 20.5518 11.5788 20.5887 11.4453V11.3704C20.5887 10.9928 20.8201 10.5924 21.1388 10.2637C21.4876 9.9056 21.9539 9.6224 22.3463 9.54427C22.5945 9.49544 22.8461 9.49219 23.091 9.528C23.3459 9.56706 23.5941 9.64518 23.8289 9.75911L23.8491 9.76563C24.0872 9.88281 24.3052 10.0326 24.4964 10.2083C24.6843 10.3841 24.8453 10.5827 24.966 10.8008C25.1572 11.1426 25.2444 11.5332 25.1841 11.9466C25.1304 12.3079 25.117 12.5358 24.805 12.8971L24.8017 12.9004C24.691 13.0273 24.644 13.1868 24.6574 13.3431C24.6709 13.4928 24.7413 13.6393 24.8654 13.7435L24.8855 13.7598C25.0164 13.8639 25.1774 13.9063 25.335 13.8932C25.4893 13.8802 25.6403 13.8118 25.7476 13.6914L25.7644 13.6686C26.0864 13.2975 26.1904 13.0241 26.3379 12.5553ZM33.704 28.4863C33.6403 28.3333 33.6034 28.1673 33.6034 27.9915C33.6034 27.8158 33.6403 27.6497 33.704 27.4967C33.7711 27.3438 33.865 27.2038 33.9857 27.0898L33.9925 27.0801C34.0595 27.015 34.1367 26.9531 34.2205 26.9043C34.2641 26.8783 34.3111 26.8522 34.3614 26.8294V24.7754H31.7585C31.7618 24.6419 31.7618 24.5085 31.7551 24.3717C31.7484 24.2969 31.782 24.222 31.8491 24.1797C32.1174 24.0007 32.3623 23.8151 32.5836 23.623H34.9518C35.1161 23.623 35.2637 23.6882 35.3711 23.7923C35.4784 23.8965 35.5455 24.0397 35.5455 24.1992V26.849C35.5857 26.8685 35.626 26.8913 35.6662 26.9173C35.7367 26.9629 35.8038 27.015 35.8641 27.0736L35.8742 27.0833C35.995 27.2005 36.0956 27.3438 36.1627 27.5033C36.2264 27.6563 36.2633 27.8223 36.2633 27.998C36.2633 28.1673 36.2298 28.3301 36.166 28.4831L36.1627 28.4928C36.0956 28.6523 35.995 28.7923 35.8742 28.9128C35.7535 29.0299 35.6059 29.1276 35.4415 29.1927C35.2839 29.2546 35.1128 29.2904 34.9317 29.2904C34.7539 29.2904 34.5828 29.2546 34.4218 29.1927C34.2574 29.1276 34.1099 29.0299 33.9891 28.9128C33.8717 28.7891 33.7711 28.6458 33.704 28.4863ZM37.4742 21.8945H33.9354C33.9958 21.7676 34.0495 21.6406 34.0964 21.5104C34.1904 21.2565 34.2574 20.9994 34.2977 20.7422H37.4742C37.4977 20.6999 37.5212 20.6576 37.548 20.6152C37.5983 20.5371 37.6587 20.4655 37.7224 20.4036C37.8465 20.2832 37.9908 20.1888 38.1551 20.1237C38.3128 20.0618 38.4839 20.026 38.665 20.026C38.8394 20.026 39.0071 20.0586 39.1648 20.1204L39.1748 20.1237C39.3392 20.1888 39.4834 20.2865 39.6075 20.4036C39.7283 20.5208 39.8289 20.6641 39.896 20.8236C39.9597 20.9766 39.9966 21.1426 39.9966 21.3184C39.9966 21.4909 39.9597 21.6569 39.896 21.8132C39.8289 21.9727 39.7283 22.1159 39.6075 22.2331C39.4868 22.3503 39.3392 22.4479 39.1748 22.513C39.0172 22.5749 38.8461 22.6107 38.665 22.6107C38.4906 22.6107 38.3228 22.5781 38.1652 22.5163L38.1551 22.513C37.9908 22.4479 37.8465 22.3503 37.7224 22.2331C37.6587 22.1712 37.6017 22.1029 37.5514 22.028L37.5447 22.0182C37.5212 21.9792 37.4977 21.9369 37.4742 21.8945ZM38.6013 18.7435H34.1501C34.0361 18.3789 33.8751 18.0241 33.6738 17.6855L33.6671 17.6758C33.6503 17.6465 33.6335 17.6204 33.6168 17.5911H38.0109V13.8314C37.9774 13.8118 37.9438 13.7923 37.9103 13.7695C37.8432 13.724 37.7828 13.6751 37.7258 13.6198C37.605 13.5026 37.5044 13.3594 37.4373 13.1999C37.3736 13.0469 37.3367 12.8809 37.3367 12.7051C37.3367 12.5326 37.3736 12.3633 37.4373 12.2103C37.5044 12.0508 37.605 11.9108 37.7258 11.7904C37.8465 11.6732 37.9941 11.5755 38.1585 11.5104C38.3161 11.4486 38.4872 11.4128 38.6683 11.4128C38.8461 11.4128 39.0172 11.4486 39.1782 11.5104C39.3426 11.5755 39.4901 11.6732 39.6109 11.7904C39.7317 11.9076 39.8323 12.0508 39.8994 12.2103C39.9631 12.3633 40 12.5293 40 12.7051C40 12.8743 39.9665 13.0371 39.9027 13.1901L39.8994 13.1999C39.8323 13.3594 39.7317 13.4993 39.6109 13.6198C39.5371 13.6914 39.4499 13.7565 39.3593 13.8118C39.309 13.8411 39.252 13.8704 39.1983 13.8932V18.1641C39.1983 18.3236 39.1312 18.4668 39.0239 18.571C38.9132 18.6784 38.7656 18.7435 38.6013 18.7435ZM33.9488 15.9635H32.4327C32.473 15.7487 32.4964 15.5339 32.5065 15.319C32.5132 15.1465 32.5132 14.9772 32.5031 14.8112H33.3551V13.112C33.3082 13.0892 33.2646 13.0664 33.221 13.0371C33.1405 12.9883 33.0667 12.9297 32.9962 12.8613C32.8755 12.7441 32.7748 12.6009 32.7078 12.4414C32.644 12.2884 32.6071 12.1224 32.6071 11.9499C32.6071 11.7773 32.644 11.6113 32.7078 11.4551C32.7748 11.3021 32.8688 11.1621 32.9862 11.0449L32.9962 11.0352C33.117 10.918 33.2646 10.8203 33.4289 10.7552C33.5866 10.6934 33.7577 10.6576 33.9388 10.6576C34.1199 10.6576 34.291 10.6934 34.4486 10.7552C34.6063 10.8203 34.7505 10.9115 34.8713 11.0286L34.8813 11.0352C35.0021 11.1523 35.0994 11.2891 35.1665 11.4453L35.1698 11.4551C35.2335 11.6081 35.2704 11.7741 35.2704 11.9499C35.2704 12.1224 35.2335 12.2917 35.1698 12.4447C35.1027 12.5977 35.0088 12.7376 34.8914 12.8548L34.8813 12.8646C34.8176 12.9264 34.7472 12.9818 34.6667 13.0339C34.6264 13.0599 34.5862 13.0827 34.5426 13.1022V15.3874C34.5426 15.5469 34.4755 15.6901 34.3681 15.7943C34.2608 15.8984 34.1099 15.9635 33.9488 15.9635ZM10.4419 6.11003C10.5996 6.17188 10.7707 6.20768 10.9518 6.20768C11.1329 6.20768 11.304 6.17188 11.4616 6.11003C11.6193 6.04492 11.7635 5.95378 11.8809 5.83659L11.891 5.83008C11.9581 5.76497 12.0218 5.6901 12.0721 5.60872C12.099 5.56641 12.1258 5.52083 12.1493 5.47201H14.2658V7.24609C14.6382 7.05404 15.0407 6.91406 15.4532 6.83268V4.89583C15.4532 4.73633 15.3862 4.5931 15.2788 4.48893C15.1715 4.38477 15.0239 4.31966 14.8595 4.31966H12.1291C12.109 4.2806 12.0855 4.24154 12.0587 4.20247C12.0117 4.13411 11.9581 4.06901 11.8977 4.01042L11.8876 4.00065C11.7669 3.88346 11.6193 3.78581 11.4549 3.7207C11.2973 3.65885 11.1262 3.62305 10.9451 3.62305C10.7706 3.62305 10.5996 3.6556 10.4453 3.71745L10.4352 3.7207C10.2709 3.78581 10.1266 3.88346 10.0025 4.00065C9.88176 4.11784 9.78113 4.26107 9.71405 4.42057C9.65031 4.57357 9.61342 4.73958 9.61342 4.91536C9.61342 5.08789 9.65031 5.25391 9.71405 5.41016C9.78113 5.56966 9.88176 5.71289 10.0025 5.83008C10.1333 5.94727 10.2776 6.04492 10.4419 6.11003ZM17.2377 2.45117V6.89779C17.6335 7.00846 18.0193 7.18425 18.3816 7.43815L18.4218 7.46745C18.4218 7.45768 18.4252 7.44792 18.4252 7.43815V2.45117C18.4688 2.42839 18.5124 2.4056 18.556 2.37956C18.6365 2.33073 18.7103 2.27214 18.774 2.21029C18.8948 2.08984 18.9954 1.94987 19.0625 1.79036C19.1262 1.63737 19.1631 1.47135 19.1631 1.29557C19.1631 1.1263 19.1296 0.963542 19.0658 0.810547L19.0625 0.800781C18.9954 0.641276 18.8948 0.501302 18.774 0.380859C18.6532 0.263672 18.5057 0.166016 18.3413 0.100911C18.1836 0.0390625 18.0126 0.00325521 17.8314 0.00325521C17.6537 0.00325521 17.4826 0.0390625 17.3216 0.100911C17.1572 0.166016 17.0096 0.263672 16.8889 0.380859C16.7681 0.498047 16.6675 0.641276 16.6004 0.800781C16.5367 0.953776 16.4998 1.11979 16.4998 1.29557C16.4998 1.46484 16.5333 1.6276 16.5971 1.7806L16.6004 1.79036C16.6675 1.94987 16.7681 2.08984 16.8889 2.21029C16.9526 2.27214 17.0231 2.32747 17.1002 2.3763L17.1069 2.37956C17.1505 2.4056 17.1908 2.42839 17.2377 2.45117ZM20.4813 1.35742V7.86133C20.6423 7.70182 20.8134 7.56185 20.9878 7.43815C21.2059 7.28516 21.434 7.1582 21.6688 7.06055V1.93034H25.543C25.5631 1.96289 25.5832 1.99544 25.6067 2.02799C25.6537 2.0931 25.704 2.15169 25.761 2.20703C25.8818 2.32422 26.0293 2.42188 26.1937 2.48698C26.3514 2.54883 26.5224 2.58464 26.7036 2.58464C26.8813 2.58464 27.0558 2.54883 27.2134 2.48698C27.3778 2.42188 27.5254 2.32422 27.6461 2.20703C27.7669 2.08984 27.8675 1.94661 27.9346 1.78711C27.9983 1.63411 28.0352 1.4681 28.0352 1.29232C28.0352 1.11979 27.9983 0.953776 27.9346 0.797526C27.8675 0.638021 27.7669 0.494792 27.6461 0.377604C27.5187 0.260417 27.3711 0.16276 27.2067 0.0976563C27.0491 0.0358073 26.878 0 26.7002 0C26.5258 0 26.3581 0.0325521 26.2004 0.094401L26.1904 0.0976563C26.026 0.16276 25.8818 0.260417 25.7577 0.377604C25.6839 0.449219 25.6168 0.533854 25.5597 0.621745C25.5296 0.670573 25.4994 0.725912 25.4759 0.777995H21.0751C20.9107 0.777995 20.7631 0.843099 20.6558 0.947266C20.5484 1.05469 20.4813 1.19792 20.4813 1.35742ZM23.3459 5.8724V6.76432C23.4667 6.77083 23.5908 6.7806 23.7115 6.80013C23.9933 6.83919 24.2683 6.90755 24.5333 7.00195V6.45182H26.2843C26.3078 6.4974 26.3312 6.53971 26.3614 6.58203C26.4117 6.66016 26.4721 6.73177 26.5426 6.80013C26.6633 6.91732 26.8109 7.01497 26.9753 7.08008C27.1329 7.14193 27.304 7.17773 27.4818 7.17773C27.6595 7.17773 27.8306 7.14193 27.9916 7.08008C28.1493 7.01497 28.2935 6.92383 28.4143 6.8099L28.4243 6.80013C28.5451 6.68294 28.6457 6.53971 28.7128 6.38021C28.7765 6.22721 28.8134 6.0612 28.8134 5.88542C28.8134 5.70964 28.7765 5.54362 28.7128 5.39062C28.6457 5.23763 28.5518 5.09766 28.431 4.98047L28.4243 4.9707C28.3036 4.85352 28.1627 4.75911 28.0017 4.69401L27.9916 4.69076C27.834 4.62891 27.6629 4.5931 27.4818 4.5931C27.304 4.5931 27.1296 4.62891 26.9719 4.69076C26.8143 4.75586 26.67 4.84701 26.5493 4.96094L26.5392 4.9707C26.4755 5.03255 26.4184 5.10091 26.3648 5.17904C26.3379 5.2181 26.3145 5.25716 26.2943 5.29948H23.9396C23.7753 5.29948 23.6277 5.36458 23.5203 5.46875C23.413 5.56966 23.3459 5.71289 23.3459 5.8724ZM6.29602 11.4583C6.35975 11.6113 6.39665 11.7773 6.39665 11.9531C6.39665 12.1289 6.35975 12.2949 6.29602 12.4479C6.22893 12.6009 6.13501 12.7409 6.01426 12.8548L6.00755 12.8646C5.94046 12.9297 5.86331 12.9915 5.77945 13.0404C5.73585 13.0664 5.68889 13.0924 5.63857 13.1152V15.1693H7.83564V15.2702C7.83564 15.3483 7.83899 15.4297 7.84235 15.5143C7.84906 15.5859 7.81551 15.6576 7.75178 15.7031C7.46331 15.9017 7.20503 16.11 6.97023 16.3216H5.05157C4.88721 16.3216 4.73962 16.2565 4.63229 16.1523C4.52495 16.0482 4.45786 15.9049 4.45786 15.7454V13.0957C4.41761 13.0762 4.37736 13.0534 4.33711 13.0273C4.26667 12.9818 4.19958 12.9297 4.1392 12.8711L4.12914 12.8613C4.00839 12.7441 3.90776 12.6009 3.84067 12.4414C3.77694 12.2884 3.74004 12.1224 3.74004 11.9466C3.74004 11.7773 3.77358 11.6146 3.83732 11.4616L3.84067 11.4518C3.90776 11.2923 4.00839 11.1523 4.12914 11.0319C4.2499 10.9147 4.39748 10.8171 4.56184 10.752C4.7195 10.6901 4.89057 10.6543 5.0717 10.6543C5.24948 10.6543 5.42054 10.6901 5.58155 10.752C5.74591 10.8171 5.8935 10.9147 6.01426 11.0319C6.1283 11.1556 6.22893 11.2988 6.29602 11.4583ZM2.52579 18.0501H5.67883C5.62516 18.1673 5.5782 18.2878 5.53459 18.4049C5.44067 18.6686 5.37358 18.9323 5.33333 19.1992H2.52579C2.50231 19.2415 2.47883 19.2839 2.45199 19.3262C2.40168 19.4043 2.3413 19.4759 2.27757 19.5378C2.15346 19.6582 2.00922 19.7526 1.84486 19.8177C1.68721 19.8796 1.51614 19.9154 1.33501 19.9154C1.16059 19.9154 0.992872 19.8828 0.83522 19.821L0.825157 19.8177C0.660797 19.7526 0.516562 19.6549 0.392453 19.5378C0.271698 19.4206 0.171069 19.2773 0.103983 19.1178C0.0402516 18.9648 0.0033543 18.7988 0.0033543 18.623C0.0033543 18.4505 0.0402516 18.2845 0.103983 18.1283C0.171069 17.9688 0.271698 17.8255 0.392453 17.7083C0.513208 17.5911 0.660797 17.4935 0.825157 17.4284C0.982809 17.3665 1.15388 17.3307 1.33501 17.3307C1.50943 17.3307 1.67715 17.3633 1.8348 17.4251L1.84486 17.4284C2.00922 17.4935 2.15346 17.5911 2.27757 17.7083C2.3413 17.7702 2.39832 17.8385 2.44864 17.9134L2.45535 17.9232C2.47883 17.9655 2.50231 18.0078 2.52579 18.0501ZM1.39874 21.2012H5.50105C5.62851 21.5951 5.813 21.9759 6.0478 22.3372V22.3405L6.05451 22.3535H1.9891V26.1133C2.02264 26.1328 2.05618 26.1523 2.08973 26.1751C2.15681 26.2207 2.21719 26.2695 2.27421 26.3249C2.39497 26.4421 2.4956 26.5853 2.56268 26.7448C2.62641 26.8978 2.66331 27.0638 2.66331 27.2396C2.66331 27.4121 2.62641 27.5814 2.56268 27.7344C2.4956 27.8939 2.39497 28.0339 2.27421 28.1543C2.15346 28.2715 2.00587 28.3691 1.84151 28.4342C1.68386 28.4961 1.51279 28.5319 1.33166 28.5319C1.15388 28.5319 0.982809 28.4961 0.821803 28.4342C0.657442 28.3691 0.509853 28.2715 0.389099 28.1543C0.268344 28.0273 0.167715 27.8841 0.100629 27.7279C0.0368973 27.5749 0 27.4089 0 27.2331C0 27.0638 0.033543 26.901 0.0972746 26.748L0.100629 26.7383C0.167715 26.5788 0.268344 26.4388 0.389099 26.3184C0.462893 26.2467 0.550105 26.1816 0.640671 26.1263C0.690985 26.097 0.748008 26.0677 0.801677 26.0449V21.7741C0.801677 21.6146 0.868763 21.4714 0.976101 21.3672C1.08679 21.2663 1.23438 21.2012 1.39874 21.2012ZM6.05115 23.9811H7.15807C7.12117 24.196 7.10105 24.4076 7.09434 24.6159C7.08763 24.7917 7.09099 24.9642 7.1044 25.1335H6.64486V26.8327C6.69182 26.8555 6.73543 26.8783 6.77904 26.9076C6.85954 26.9564 6.93333 27.015 7.00377 27.0833C7.12453 27.2005 7.22516 27.3438 7.29224 27.5033C7.35597 27.6563 7.39287 27.8223 7.39287 27.998C7.39287 28.1738 7.35597 28.3366 7.29224 28.4928C7.22516 28.6458 7.13124 28.7858 7.01384 28.903L7.00377 28.9128C6.88302 29.0299 6.73543 29.1276 6.57107 29.1927C6.41342 29.2546 6.24235 29.2904 6.06122 29.2904C5.88008 29.2904 5.70901 29.2546 5.55136 29.1927C5.39371 29.1276 5.24948 29.0365 5.12872 28.9193L5.11866 28.9128C4.9979 28.7956 4.90063 28.6589 4.83354 28.5026L4.83019 28.4928C4.76646 28.3398 4.72956 28.1738 4.72956 27.998C4.72956 27.8255 4.76646 27.6563 4.83019 27.5033C4.89727 27.3503 4.99119 27.2103 5.1086 27.0931L5.11866 27.0833C5.18239 27.0215 5.25283 26.9661 5.33333 26.9141C5.37358 26.888 5.41384 26.8652 5.45744 26.8457V24.5605C5.45744 24.401 5.52453 24.2578 5.63187 24.1536C5.7392 24.043 5.88679 23.9811 6.05115 23.9811ZM22.1484 37.5488V32.9948C21.7291 32.8678 21.3333 32.6628 20.9711 32.373L20.9644 32.3665V37.5521C20.9208 37.5749 20.8771 37.5977 20.8335 37.6237C20.753 37.6725 20.6792 37.7311 20.6155 37.793C20.4948 37.9134 20.3941 38.0534 20.327 38.2129C20.2633 38.3659 20.2264 38.5319 20.2264 38.7077C20.2264 38.877 20.26 39.0397 20.3237 39.1927L20.327 39.2025C20.3941 39.362 20.4948 39.502 20.6155 39.6224C20.7363 39.7396 20.8839 39.8372 21.0482 39.9023C21.2059 39.9642 21.3769 40 21.5581 40C21.7358 40 21.9069 39.9642 22.0679 39.9023C22.2323 39.8372 22.3799 39.7396 22.5006 39.6224C22.6214 39.5052 22.722 39.362 22.7891 39.2025C22.8528 39.0495 22.8897 38.8835 22.8897 38.7077C22.8897 38.5384 22.8562 38.3757 22.7925 38.2227L22.7891 38.2129C22.722 38.0534 22.6214 37.9134 22.5006 37.793C22.4369 37.7311 22.3665 37.6758 22.2893 37.627L22.2792 37.6204C22.2356 37.5944 22.192 37.5716 22.1484 37.5488ZM18.9015 38.6426V32.0801C18.7606 32.2201 18.613 32.3438 18.4587 32.4577C18.2205 32.6335 17.9723 32.7734 17.714 32.8841V38.0729H13.8398C13.8197 38.0404 13.7996 38.0078 13.7761 37.9753C13.7291 37.9102 13.6788 37.8516 13.6218 37.7962C13.501 37.679 13.3535 37.5814 13.1891 37.5163C13.0314 37.4544 12.8604 37.4186 12.6792 37.4186C12.5015 37.4186 12.327 37.4544 12.1694 37.5163C12.005 37.5814 11.8608 37.679 11.7367 37.7962C11.6159 37.9134 11.5153 38.0566 11.4482 38.2161C11.3845 38.3691 11.3476 38.5352 11.3476 38.7109C11.3476 38.8835 11.3845 39.0495 11.4482 39.2057C11.5153 39.3652 11.6159 39.5085 11.7367 39.6257C11.8574 39.7428 12.005 39.8405 12.1694 39.9056C12.327 39.9674 12.4981 40.0033 12.6792 40.0033C12.8537 40.0033 13.0214 39.9707 13.179 39.9089L13.1891 39.9056C13.3535 39.8405 13.4977 39.7428 13.6218 39.6257C13.6956 39.554 13.7627 39.4694 13.8197 39.3815C13.8499 39.3327 13.8801 39.2773 13.9036 39.2253H18.3044C18.4688 39.2253 18.6164 39.1602 18.7237 39.056C18.8344 38.9453 18.9015 38.8021 18.9015 38.6426ZM16.0369 34.1276V33.1803C15.7753 33.1673 15.5136 33.1283 15.2587 33.0664C15.1212 33.0339 14.9836 32.9915 14.8495 32.946V33.5547H13.0985C13.0751 33.5091 13.0516 33.4668 13.0214 33.4245C12.9711 33.3464 12.9107 33.2747 12.8403 33.2064C12.7195 33.0892 12.5719 32.9915 12.4075 32.9264C12.2499 32.8646 12.0788 32.8288 11.901 32.8288C11.7233 32.8288 11.5522 32.8646 11.3912 32.9264C11.2335 32.9915 11.0893 33.0827 10.9686 33.1966L10.9585 33.2031C10.8377 33.3203 10.7371 33.4635 10.67 33.623C10.6063 33.776 10.5694 33.9421 10.5694 34.1178C10.5694 34.2936 10.6063 34.4596 10.67 34.6126C10.7371 34.7656 10.831 34.9056 10.9518 35.0228L10.9585 35.0326C11.0792 35.1497 11.2201 35.2441 11.3811 35.3092L11.3912 35.3125C11.5488 35.3744 11.7199 35.4102 11.901 35.4102C12.0788 35.4102 12.2499 35.3744 12.4109 35.3125C12.5686 35.2474 12.7128 35.1563 12.8335 35.0423L12.8436 35.0326C12.9073 34.9707 12.9644 34.9023 13.018 34.8242C13.0449 34.7852 13.0683 34.7461 13.0885 34.7038H15.4432C15.6075 34.7038 15.7551 34.6387 15.8625 34.5345C15.9698 34.4303 16.0369 34.2871 16.0369 34.1276Z" fill="url(#paint0_linear_1_8)"/>
</g>
<defs>
<linearGradient id="paint0_linear_1_8" x1="20" y1="0" x2="20" y2="40.0033" gradientUnits="userSpaceOnUse">
<stop offset="0.26" stop-color="#FFDB6E"/>
<stop offset="1" stop-color="#FFBC5E"/>
</linearGradient>
<clipPath id="clip0_1_8">
<rect width="40" height="40" fill="white"/>
</clipPath>
</defs>
</svg>
